<?xml version="1.0" encoding="UTF-8"?>
<!DOCTYPE svg PUBLIC "-//W3C//DTD SVG 1.1//EN" "http://www.w3.org/Graphics/SVG/1.1/DTD/svg11.dtd">
<!-- Creator: CorelDRAW 2020 (64-Bit) -->
<svg xmlns="http://www.w3.org/2000/svg" xml:space="preserve" width="67.7332mm" height="9.3724mm" version="1.1" style="shape-rendering:geometricPrecision; text-rendering:geometricPrecision; image-rendering:optimizeQuality; fill-rule:evenodd; clip-rule:evenodd"
viewBox="0 0 6773.32 937.24"
 xmlns:xlink="http://www.w3.org/1999/xlink"
 xmlns:xodm="http://www.corel.com/coreldraw/odm/2003">
 <defs>
  <style type="text/css">
   <![CDATA[
    .fil0 {fill:#F7F7F8;fill-rule:nonzero}
   ]]>
  </style>
 </defs>
 <g id="Capa_x0020_1">
  <metadata id="CorelCorpID_0Corel-Layer"/>
  <g id="_1719733219232">
   <path class="fil0" d="M5794.35 550.86c1.36,-57.54 -11.33,-102.85 -38.28,-135.7 -26.96,-32.85 -66.61,-49.16 -119.39,-49.16 -27.19,0 -50.98,4.98 -71.37,15.18 -20.38,10.19 -37.38,23.79 -51.19,40.78 -13.82,16.76 -24.47,36.47 -31.95,58.67 -7.47,22.43 -11.78,45.76 -12.68,70.23l324.86 0zm110.1 32.4c0,17.21 -4.3,29.45 -12.91,36.92 -8.61,7.25 -18.58,10.88 -29.68,10.88l-392.37 0c0,33.3 3.39,63.2 9.96,89.71 6.57,26.73 17.67,49.61 33.31,68.64 15.4,19.03 35.56,33.53 60.26,43.73 24.92,10.19 55.27,15.4 91.07,15.4 28.32,0 53.69,-2.26 75.66,-7.02 22.21,-4.53 41.46,-9.74 57.55,-15.41 16.08,-5.66 29.45,-10.87 39.87,-15.4 10.42,-4.76 18.12,-7.03 23.56,-7.03 3.17,0 5.89,0.68 8.38,2.27 2.27,1.59 4.31,3.85 5.44,7.02 1.36,2.95 2.49,7.25 3.17,12.69 0.68,5.66 0.91,12.23 0.91,20.16 0,5.67 -0.23,10.65 -0.68,14.95 -0.46,4.08 -0.91,7.93 -1.59,11.11 -0.68,3.39 -1.81,6.34 -3.4,9.06 -1.58,2.49 -3.4,4.98 -5.89,7.47 -2.49,2.49 -9.74,6.35 -21.52,11.78 -12.01,5.67 -27.41,10.88 -46.44,16.31 -19.03,5.21 -41.01,9.97 -65.93,14.05 -24.92,4.3 -51.42,6.34 -79.74,6.34 -49.16,0 -91.98,-6.79 -128.9,-20.61 -36.93,-13.59 -67.97,-33.98 -93.11,-60.94 -25.15,-27.19 -44.18,-60.94 -56.87,-101.72 -12.91,-40.55 -19.25,-87.9 -19.25,-142.05 0,-51.19 6.57,-97.41 19.93,-138.41 13.14,-40.78 32.4,-75.67 57.32,-104.21 24.92,-28.55 55.28,-50.3 90.62,-65.7 35.34,-15.18 74.98,-22.88 118.71,-22.88 46.89,0 86.76,7.47 119.61,22.65 33.08,14.95 60.04,35.34 81.33,60.71 21.07,25.38 36.7,55.28 46.67,89.72 9.97,34.2 14.95,70.9 14.95,109.87l0 19.94zm-821.45 -95.83c-29.45,-36.93 -58,-65.02 -85.63,-84.28 -27.64,-19.25 -56.41,-28.99 -86.32,-28.99 -27.86,0 -51.42,6.57 -70.91,19.93 -19.48,13.37 -35.11,30.81 -47.34,52.56 -12.01,21.52 -20.85,46.22 -26.28,73.63 -5.67,27.41 -8.39,55.27 -8.39,83.59 0,30.13 2.27,59.58 7.03,88.35 4.53,28.78 12.68,54.38 24.01,76.8 11.55,22.43 26.73,40.33 45.76,53.92 18.81,13.37 42.82,20.16 71.36,20.16 14.5,0 28.55,-2.04 42.14,-5.89 13.37,-4.07 27.19,-10.64 41.23,-19.93 14.05,-9.29 29,-21.3 44.41,-36.25 15.4,-14.72 31.71,-32.85 48.93,-54.6l0 -239zm110.1 420.69c0,3.63 -0.68,6.57 -2.26,9.29 -1.59,2.72 -4.31,4.76 -7.93,6.34 -3.86,1.59 -8.84,2.72 -14.96,3.63 -6.34,0.9 -13.81,1.36 -22.65,1.36 -9.29,0 -16.99,-0.46 -23.11,-1.36 -6.34,-0.91 -11.33,-2.04 -15.4,-3.63 -3.85,-1.58 -6.8,-3.62 -8.61,-6.34 -1.59,-2.72 -2.49,-5.89 -2.49,-9.29l0 -79.52c-31.49,34.21 -64.12,60.72 -97.87,79.75 -33.98,19.03 -70.91,28.54 -111.23,28.54 -43.73,0 -81.11,-8.61 -111.92,-25.6 -31.03,-16.99 -56.18,-40.09 -75.44,-69.09 -19.03,-29 -33.07,-62.98 -41.91,-102.17 -8.83,-39.2 -13.36,-80.43 -13.36,-123.7 0,-51.42 5.43,-97.87 16.53,-139.1 11.1,-41.45 27.42,-76.8 49.16,-106.02 21.53,-29.22 48.48,-51.65 80.65,-67.28 31.95,-15.63 68.87,-23.56 111.01,-23.56 34.89,0 66.83,7.7 95.83,22.88 29,15.4 57.54,37.83 85.86,67.51l0 -346.39c0,-3.17 0.68,-6.12 2.27,-9.06 1.58,-2.95 4.53,-4.99 9.06,-6.57 4.3,-1.59 9.97,-2.95 16.76,-4.08 7.02,-1.13 15.63,-1.59 26.28,-1.59 11.1,0 20.16,0.46 27.19,1.59 7.02,1.13 12.68,2.49 16.53,4.08 4.08,1.58 7.03,3.62 9.07,6.57 2.03,2.94 2.94,5.89 2.94,9.06l0 883.75zm-787.47 -298.81c0,-32.4 -2.95,-62.98 -9.06,-91.75 -5.89,-28.77 -15.86,-53.92 -29.68,-75.67 -13.59,-21.75 -32.4,-38.96 -55.96,-51.42 -23.33,-12.69 -52.78,-19.03 -87.9,-19.03 -32.39,0 -60.26,5.66 -83.59,17.21 -23.34,11.56 -42.37,27.87 -57.54,48.94 -15.18,21.07 -26.28,45.99 -33.53,74.76 -7.48,28.77 -11.1,60.26 -11.1,94.24 0,32.85 2.94,63.66 9.06,92.43 5.89,28.77 15.86,53.92 29.9,75.44 14.05,21.3 32.85,38.51 56.19,50.97 23.56,12.69 53.01,19.03 88.12,19.03 31.94,0 59.58,-5.66 83.14,-17.21 23.56,-11.56 42.82,-27.64 58,-48.48 15.18,-20.85 26.28,-45.77 33.3,-74.54 7.02,-28.77 10.65,-60.49 10.65,-94.92zm114.18 -7.02c0,48.7 -6.35,93.56 -19.26,134.56 -12.69,40.78 -31.94,76.12 -57.31,105.8 -25.38,29.68 -57.32,52.79 -95.38,69.32 -38.29,16.54 -82.69,24.92 -132.98,24.92 -49.16,0 -91.98,-7.25 -128.45,-21.97 -36.48,-14.5 -66.83,-35.8 -91.07,-63.66 -24.24,-27.87 -42.37,-61.85 -54.38,-101.49 -12,-39.87 -17.89,-84.96 -17.89,-135.48 0,-48.7 6.34,-93.56 18.8,-134.34 12.69,-41 31.72,-76.34 57.09,-106.02 25.37,-29.68 57.09,-52.56 95.15,-69.1 38.06,-16.31 82.46,-24.46 133.21,-24.46 49.16,0 91.98,7.25 128.45,21.97 36.47,14.5 66.83,35.8 91.07,63.66 24.24,27.87 42.59,61.62 54.82,101.49 12.01,39.87 18.13,84.73 18.13,134.8zm-635.92 305.15c0,3.63 -0.9,6.8 -2.72,9.29 -1.81,2.72 -4.75,4.98 -8.83,6.8 -4.31,1.58 -10.2,2.94 -17.67,3.85 -7.48,0.9 -16.99,1.36 -28.55,1.36 -11.78,0 -21.75,-0.23 -29.45,-0.91 -7.7,-0.68 -14.27,-1.81 -19.48,-3.4 -5.44,-1.58 -9.74,-3.85 -12.91,-6.57 -3.4,-2.94 -6.35,-6.34 -9.07,-10.42l-251.91 -330.75 0 331.43c0,3.63 -0.91,6.57 -2.72,9.06 -1.81,2.27 -4.53,4.53 -8.61,6.35 -4.08,1.58 -9.52,2.94 -16.77,3.85 -7.02,0.9 -16.08,1.36 -27.18,1.36 -10.88,0 -19.71,-0.46 -26.73,-1.36 -7.25,-0.91 -12.92,-2.27 -16.99,-3.85 -4.31,-1.82 -7.25,-4.08 -8.84,-6.35 -1.59,-2.49 -2.26,-5.43 -2.26,-9.06l0 -886.47c0,-3.62 0.67,-6.79 2.26,-9.29 1.59,-2.72 4.53,-4.98 8.84,-6.79 4.07,-1.59 9.74,-2.95 16.99,-3.85 7.02,-0.91 15.85,-1.36 26.73,-1.36 11.1,0 20.16,0.45 27.18,1.36 7.25,0.9 12.69,2.26 16.77,3.85 4.08,1.81 6.8,4.07 8.61,6.79 1.81,2.5 2.72,5.67 2.72,9.29l0 539.86 224.96 -248.29c3.62,-4.54 7.47,-8.16 11.32,-11.11 4.08,-2.71 8.84,-5.21 14.27,-7.25 5.44,-2.03 12.01,-3.39 19.49,-4.07 7.47,-0.68 16.54,-0.91 27.18,-0.91 11.1,0 20.39,0.23 27.87,0.91 7.47,0.68 13.59,1.81 18.12,3.4 4.53,1.58 7.93,3.62 9.97,5.89 2.04,2.49 2.94,5.66 2.94,9.74 0,5.21 -1.35,10.64 -4.3,15.86 -2.94,5.43 -7.48,11.55 -14.27,18.57l-215.22 216.58 242.4 315.35c5.67,7.7 9.74,13.59 12.24,18.35 2.49,4.76 3.62,9.06 3.62,12.91zm-635.91 -91.3c0,7.48 -0.22,14.05 -0.68,19.49 -0.45,5.66 -1.13,10.19 -2.26,14.04 -1.13,3.85 -2.49,7.03 -4.08,9.97 -1.58,2.95 -4.98,7.25 -10.65,12.69 -5.43,5.66 -14.95,12.46 -28.09,20.84 -13.36,8.16 -28.32,15.63 -44.85,21.98 -16.77,6.56 -34.66,11.78 -54.15,15.63 -19.48,4.07 -39.64,6.11 -60.49,6.11 -43.04,0 -81.1,-7.02 -114.17,-21.29 -33.31,-14.05 -61.17,-34.66 -83.37,-61.85 -22.43,-27.18 -39.42,-60.71 -51.2,-100.13 -11.78,-39.65 -17.67,-85.18 -17.67,-137.06 0,-58.68 7.25,-109.2 21.52,-151.56 14.5,-42.14 34.21,-76.8 59.13,-103.76 25.14,-26.96 54.6,-46.89 88.35,-60.03 33.98,-12.91 70.68,-19.48 110.1,-19.48 19.03,0 37.38,1.81 55.28,5.43 18.12,3.4 34.43,8.16 49.61,13.82 14.95,5.89 28.55,12.46 40.1,20.16 11.78,7.48 20.39,14.05 25.6,19.26 5.44,5.44 9.06,9.74 11.1,12.69 1.81,3.17 3.63,6.79 4.98,11.1 1.14,4.08 2.04,8.83 2.5,14.27 0.45,5.21 0.68,12.01 0.68,19.94 0,17.21 -2.04,29.22 -5.89,36.24 -4.08,6.8 -8.84,10.2 -14.73,10.2 -6.57,0 -14.27,-3.63 -22.88,-11.1 -8.61,-7.25 -19.48,-15.41 -32.85,-24.24 -13.37,-8.84 -29.45,-16.99 -48.25,-24.24 -18.81,-7.48 -41.01,-11.1 -66.61,-11.1 -52.78,0 -93.33,20.16 -121.43,60.71 -28.09,40.32 -42.13,99 -42.13,175.8 0,38.28 3.62,72.04 10.87,101.04 7.48,28.77 18.12,53.01 32.4,72.49 14.04,19.26 31.49,33.76 52.1,43.27 20.62,9.52 44.18,14.27 70.68,14.27 25.38,0 47.58,-4.07 66.61,-12 19.03,-7.93 35.34,-16.77 49.39,-26.51 14.04,-9.51 25.82,-18.12 35.34,-25.82 9.51,-7.93 16.76,-11.78 22.2,-11.78 2.94,0 5.66,0.9 7.93,2.71 2.26,1.82 4.07,4.76 5.66,8.84 1.59,4.3 2.72,9.51 3.4,16.08 0.68,6.35 0.9,14.05 0.9,22.88zm-739.44 -181l-93.56 0c-29.91,0 -55.96,2.49 -78.16,7.7 -21.97,4.98 -40.32,12.68 -55.05,22.65 -14.5,9.97 -25.15,21.75 -32.17,35.8 -6.8,14.04 -10.19,30.13 -10.19,48.25 0,31.04 9.74,55.73 29.45,74.08 19.71,18.35 47.12,27.64 82.69,27.64 28.54,0 55.27,-7.25 79.74,-21.98 24.47,-14.49 50.29,-36.92 77.25,-67.05l0 -127.09zm108.74 273.66c0,5.21 -1.81,9.29 -5.21,12.01 -3.62,2.72 -8.38,4.53 -14.72,5.89 -6.12,1.36 -15.18,2.04 -27.19,2.04 -11.32,0 -20.61,-0.68 -27.41,-2.04 -6.8,-1.36 -11.78,-3.17 -14.95,-5.89 -3.17,-2.72 -4.76,-6.57 -4.76,-12.01l0 -59.81c-26.05,27.87 -55.05,49.62 -87.22,65.02 -32.17,15.18 -66.15,22.88 -101.94,22.88 -31.49,0 -60.04,-4.07 -85.41,-12.23 -25.37,-8.16 -47.12,-20.16 -65.02,-35.57 -17.9,-15.4 -31.94,-34.66 -41.91,-57.09 -9.97,-22.65 -14.95,-48.25 -14.95,-77.02 0,-33.76 6.79,-62.98 20.61,-87.68 13.6,-24.92 33.3,-45.53 59.13,-61.84 25.6,-16.31 57.09,-28.77 94.24,-36.93 37.16,-8.15 79.07,-12.23 125.51,-12.23l82.46 0 0 -46.67c0,-22.88 -2.49,-43.27 -7.25,-61.17 -4.98,-17.67 -12.68,-32.39 -23.56,-44.17 -10.87,-11.78 -24.92,-20.62 -42.14,-26.51 -17.21,-6.12 -38.51,-9.06 -63.65,-9.06 -26.96,0 -51.2,3.17 -72.5,9.74 -21.52,6.57 -40.32,13.59 -56.41,21.52 -16.08,7.93 -29.68,14.95 -40.55,21.52 -10.65,6.57 -18.8,9.74 -24.01,9.74 -3.63,0 -6.8,-0.9 -9.29,-2.71 -2.72,-1.59 -4.99,-4.31 -7.03,-7.93 -2.03,-3.4 -3.39,-7.93 -4.3,-13.37 -0.91,-5.66 -1.36,-11.55 -1.36,-18.35 0,-10.87 0.68,-19.71 2.27,-26.05 1.58,-6.34 5.43,-12.46 11.32,-18.13 5.89,-5.66 16.32,-12.46 30.81,-20.38 14.5,-7.71 31.49,-14.96 50.52,-21.53 18.81,-6.34 39.65,-11.78 62.3,-16.08 22.43,-4.31 45.31,-6.34 68.19,-6.34 42.82,0 79.29,4.75 109.42,14.49 30.14,9.75 54.38,24.25 72.95,43.05 18.58,18.8 31.94,42.14 40.33,70 8.38,27.87 12.68,60.49 12.68,97.64l0 403.25zm-651.76 -0.68c0,3.63 -0.91,6.57 -2.72,9.06 -1.81,2.27 -4.53,4.53 -8.61,6.35 -4.08,1.58 -9.52,2.94 -16.77,3.85 -7.02,0.9 -16.08,1.36 -27.18,1.36 -10.88,0 -19.71,-0.46 -26.73,-1.36 -7.25,-0.91 -12.92,-2.27 -16.99,-3.85 -4.31,-1.82 -7.25,-4.08 -8.84,-6.35 -1.59,-2.49 -2.26,-5.43 -2.26,-9.06l0 -886.47c0,-3.62 0.67,-6.79 2.26,-9.29 1.59,-2.72 4.53,-4.98 8.84,-6.79 4.07,-1.59 9.74,-2.95 16.99,-3.85 7.02,-0.91 15.85,-1.36 26.73,-1.36 11.1,0 20.16,0.45 27.18,1.36 7.25,0.9 12.69,2.26 16.77,3.85 4.08,1.81 6.8,4.07 8.61,6.79 1.81,2.5 2.72,5.67 2.72,9.29l0 886.47zm-390.11 -222.92c0,-25.6 -4.08,-48.25 -12.23,-67.74 -8.16,-19.48 -20.17,-35.79 -35.8,-49.16 -15.86,-13.36 -35.34,-23.33 -59.13,-30.35 -23.56,-6.8 -53.46,-10.2 -89.26,-10.2l-136.6 0 0 303.12 165.83 0c26.05,0 48.93,-3.17 68.41,-9.29 19.49,-6.11 36.48,-15.4 51.43,-27.64 14.73,-12.23 26.28,-27.41 34.66,-45.53 8.38,-18.13 12.69,-39.19 12.69,-63.21zm-51.65 -391.47c0,-20.84 -2.95,-39.64 -8.61,-56.63 -5.67,-16.77 -14.73,-31.04 -27.19,-42.82 -12.46,-11.78 -28.54,-20.62 -48.48,-26.96 -19.93,-6.12 -46.21,-9.29 -79.06,-9.29l-118.03 0 0 278.65 130.03 0c29.68,0 53.47,-3.85 71.82,-11.55 18.12,-7.93 33.07,-18.35 45.08,-31.26 11.78,-13.14 20.62,-28.55 26.05,-45.99 5.67,-17.45 8.39,-35.57 8.39,-54.15zm171.26 384.68c0,26.95 -3.39,51.87 -10.19,74.53 -7.02,22.88 -16.54,43.27 -29,61.62 -12.46,18.12 -27.41,33.98 -44.85,47.8 -17.45,13.59 -37.16,25.15 -59.13,34.43 -21.98,9.29 -45.54,16.32 -70.46,20.85 -25.14,4.75 -53.69,7.02 -86.08,7.02l-224.51 0c-10.2,0 -19.94,-3.4 -29,-10.19 -9.06,-7.03 -13.59,-19.03 -13.59,-36.25l0 -766.18c0,-17.21 4.53,-29.22 13.59,-36.24 9.06,-6.8 18.8,-10.2 29,-10.2l195.28 0c51.43,0 93.56,4.76 126.41,14.5 32.63,9.74 60.04,24.01 82.01,42.59 21.98,18.58 38.51,41.46 49.62,68.42 11.1,26.96 16.53,57.54 16.53,91.52 0,20.39 -2.49,39.87 -7.25,58.45 -4.98,18.58 -12.23,35.79 -21.74,51.43 -9.52,15.85 -21.3,29.9 -35.8,42.13 -14.5,12.46 -31.04,22.66 -49.61,30.59 23.56,4.53 45.53,12.46 65.92,24.24 20.17,11.78 38.06,26.73 53.47,44.85 15.18,18.13 27.18,39.42 36.02,63.66 8.83,24.47 13.36,51.2 13.36,80.43z"/>
   <path class="fil0" d="M1029.76 841.74c0,35.5 -5.88,58.99 -17.62,70.74 -11.75,11.75 -32.95,17.62 -63.85,17.62 -30.13,0 -50.81,-5.87 -62.31,-17.37 -11.48,-11.48 -17.1,-34.47 -17.1,-68.95 0,-35.48 5.88,-58.98 17.62,-70.72 11.75,-11.75 32.94,-17.62 63.83,-17.62 30.15,0 50.83,5.61 62.31,17.11 11.24,11.49 17.12,34.73 17.12,69.19z"/>
  </g>
 </g>
</svg>
